<mxfile host="65bd71144e">
    <diagram name="Page-1" id="Q03dgdTwpuDwBj0q-RrG">
        <mxGraphModel dx="745" dy="395" grid="0" gridSize="10" guides="1" tooltips="1" connect="1" arrows="1" fold="1" page="1" pageScale="1" pageWidth="850" pageHeight="1100" math="1" shadow="0">
            <root>
                <mxCell id="0"/>
                <mxCell id="1" parent="0"/>
                <mxCell id="tISk1o16dEwQGWfrvIrr-1" value="" style="ellipse;whiteSpace=wrap;html=1;aspect=fixed;fillColor=#FFFFFF;" parent="1" vertex="1">
                    <mxGeometry x="305" y="200" width="30" height="30" as="geometry"/>
                </mxCell>
                <mxCell id="tISk1o16dEwQGWfrvIrr-2" value="" style="ellipse;whiteSpace=wrap;html=1;aspect=fixed;fillColor=#F0F0F0;" parent="1" vertex="1">
                    <mxGeometry x="170" y="280" width="30" height="30" as="geometry"/>
                </mxCell>
                <mxCell id="tISk1o16dEwQGWfrvIrr-3" value="" style="ellipse;whiteSpace=wrap;html=1;aspect=fixed;fillColor=#F0F0F0;" parent="1" vertex="1">
                    <mxGeometry x="260" y="280" width="30" height="30" as="geometry"/>
                </mxCell>
                <mxCell id="tISk1o16dEwQGWfrvIrr-4" value="" style="ellipse;whiteSpace=wrap;html=1;aspect=fixed;fillColor=#F0F0F0;" parent="1" vertex="1">
                    <mxGeometry x="350" y="280" width="30" height="30" as="geometry"/>
                </mxCell>
                <mxCell id="tISk1o16dEwQGWfrvIrr-5" value="" style="ellipse;whiteSpace=wrap;html=1;aspect=fixed;fillColor=#F0F0F0;" parent="1" vertex="1">
                    <mxGeometry x="440" y="280" width="30" height="30" as="geometry"/>
                </mxCell>
                <mxCell id="tISk1o16dEwQGWfrvIrr-6" value="" style="ellipse;whiteSpace=wrap;html=1;aspect=fixed;fillColor=#D1D1D1;" parent="1" vertex="1">
                    <mxGeometry x="260" y="340" width="30" height="30" as="geometry"/>
                </mxCell>
                <mxCell id="tISk1o16dEwQGWfrvIrr-7" value="" style="ellipse;whiteSpace=wrap;html=1;aspect=fixed;fillColor=#D1D1D1;" parent="1" vertex="1">
                    <mxGeometry x="320" y="340" width="30" height="30" as="geometry"/>
                </mxCell>
                <mxCell id="tISk1o16dEwQGWfrvIrr-8" value="" style="ellipse;whiteSpace=wrap;html=1;aspect=fixed;fillColor=#D1D1D1;" parent="1" vertex="1">
                    <mxGeometry x="380" y="340" width="30" height="30" as="geometry"/>
                </mxCell>
                <mxCell id="tISk1o16dEwQGWfrvIrr-9" value="" style="ellipse;whiteSpace=wrap;html=1;aspect=fixed;fillColor=#D1D1D1;" parent="1" vertex="1">
                    <mxGeometry x="440" y="340" width="30" height="30" as="geometry"/>
                </mxCell>
                <mxCell id="tISk1o16dEwQGWfrvIrr-10" value="" style="endArrow=none;html=1;rounded=0;" parent="1" source="tISk1o16dEwQGWfrvIrr-2" target="tISk1o16dEwQGWfrvIrr-1" edge="1">
                    <mxGeometry width="50" height="50" relative="1" as="geometry">
                        <mxPoint x="350" y="270" as="sourcePoint"/>
                        <mxPoint x="400" y="220" as="targetPoint"/>
                    </mxGeometry>
                </mxCell>
                <mxCell id="tISk1o16dEwQGWfrvIrr-11" value="" style="endArrow=none;html=1;rounded=0;" parent="1" source="tISk1o16dEwQGWfrvIrr-3" target="tISk1o16dEwQGWfrvIrr-1" edge="1">
                    <mxGeometry width="50" height="50" relative="1" as="geometry">
                        <mxPoint x="350" y="320" as="sourcePoint"/>
                        <mxPoint x="400" y="270" as="targetPoint"/>
                    </mxGeometry>
                </mxCell>
                <mxCell id="tISk1o16dEwQGWfrvIrr-12" value="" style="endArrow=none;html=1;rounded=0;" parent="1" source="tISk1o16dEwQGWfrvIrr-4" target="tISk1o16dEwQGWfrvIrr-1" edge="1">
                    <mxGeometry width="50" height="50" relative="1" as="geometry">
                        <mxPoint x="350" y="320" as="sourcePoint"/>
                        <mxPoint x="400" y="270" as="targetPoint"/>
                    </mxGeometry>
                </mxCell>
                <mxCell id="tISk1o16dEwQGWfrvIrr-13" value="" style="endArrow=none;html=1;rounded=0;" parent="1" source="tISk1o16dEwQGWfrvIrr-5" target="tISk1o16dEwQGWfrvIrr-1" edge="1">
                    <mxGeometry width="50" height="50" relative="1" as="geometry">
                        <mxPoint x="350" y="320" as="sourcePoint"/>
                        <mxPoint x="400" y="270" as="targetPoint"/>
                    </mxGeometry>
                </mxCell>
                <mxCell id="tISk1o16dEwQGWfrvIrr-14" value="" style="endArrow=none;html=1;rounded=0;" parent="1" source="tISk1o16dEwQGWfrvIrr-6" target="tISk1o16dEwQGWfrvIrr-4" edge="1">
                    <mxGeometry width="50" height="50" relative="1" as="geometry">
                        <mxPoint x="350" y="320" as="sourcePoint"/>
                        <mxPoint x="400" y="270" as="targetPoint"/>
                    </mxGeometry>
                </mxCell>
                <mxCell id="tISk1o16dEwQGWfrvIrr-15" value="" style="endArrow=none;html=1;rounded=0;" parent="1" source="tISk1o16dEwQGWfrvIrr-7" target="tISk1o16dEwQGWfrvIrr-4" edge="1">
                    <mxGeometry width="50" height="50" relative="1" as="geometry">
                        <mxPoint x="350" y="320" as="sourcePoint"/>
                        <mxPoint x="400" y="270" as="targetPoint"/>
                    </mxGeometry>
                </mxCell>
                <mxCell id="tISk1o16dEwQGWfrvIrr-16" value="" style="endArrow=none;html=1;rounded=0;" parent="1" source="tISk1o16dEwQGWfrvIrr-8" target="tISk1o16dEwQGWfrvIrr-4" edge="1">
                    <mxGeometry width="50" height="50" relative="1" as="geometry">
                        <mxPoint x="350" y="320" as="sourcePoint"/>
                        <mxPoint x="400" y="270" as="targetPoint"/>
                    </mxGeometry>
                </mxCell>
                <mxCell id="tISk1o16dEwQGWfrvIrr-17" value="" style="endArrow=none;html=1;rounded=0;" parent="1" source="tISk1o16dEwQGWfrvIrr-9" target="tISk1o16dEwQGWfrvIrr-4" edge="1">
                    <mxGeometry width="50" height="50" relative="1" as="geometry">
                        <mxPoint x="350" y="320" as="sourcePoint"/>
                        <mxPoint x="400" y="270" as="targetPoint"/>
                    </mxGeometry>
                </mxCell>
                <mxCell id="tISk1o16dEwQGWfrvIrr-18" value="" style="ellipse;whiteSpace=wrap;html=1;aspect=fixed;fillColor=#A1A1A1;" parent="1" vertex="1">
                    <mxGeometry x="240" y="440" width="30" height="30" as="geometry"/>
                </mxCell>
                <mxCell id="tISk1o16dEwQGWfrvIrr-19" value="" style="ellipse;whiteSpace=wrap;html=1;aspect=fixed;fillColor=#A1A1A1;" parent="1" vertex="1">
                    <mxGeometry x="290" y="440" width="30" height="30" as="geometry"/>
                </mxCell>
                <mxCell id="tISk1o16dEwQGWfrvIrr-20" value="" style="ellipse;whiteSpace=wrap;html=1;aspect=fixed;fillColor=#A1A1A1;" parent="1" vertex="1">
                    <mxGeometry x="341" y="440" width="30" height="30" as="geometry"/>
                </mxCell>
                <mxCell id="tISk1o16dEwQGWfrvIrr-21" value="" style="ellipse;whiteSpace=wrap;html=1;aspect=fixed;fillColor=#A1A1A1;" parent="1" vertex="1">
                    <mxGeometry x="390" y="440" width="30" height="30" as="geometry"/>
                </mxCell>
                <mxCell id="tISk1o16dEwQGWfrvIrr-22" value="" style="endArrow=none;html=1;rounded=0;" parent="1" source="tISk1o16dEwQGWfrvIrr-18" target="tISk1o16dEwQGWfrvIrr-7" edge="1">
                    <mxGeometry width="50" height="50" relative="1" as="geometry">
                        <mxPoint x="332.5" y="383" as="sourcePoint"/>
                        <mxPoint x="325.5" y="360" as="targetPoint"/>
                    </mxGeometry>
                </mxCell>
                <mxCell id="tISk1o16dEwQGWfrvIrr-23" value="" style="endArrow=none;html=1;rounded=0;" parent="1" source="tISk1o16dEwQGWfrvIrr-19" target="tISk1o16dEwQGWfrvIrr-7" edge="1">
                    <mxGeometry width="50" height="50" relative="1" as="geometry">
                        <mxPoint x="332.5" y="383" as="sourcePoint"/>
                        <mxPoint x="329.5" y="363" as="targetPoint"/>
                    </mxGeometry>
                </mxCell>
                <mxCell id="tISk1o16dEwQGWfrvIrr-24" value="" style="endArrow=none;html=1;rounded=0;" parent="1" source="tISk1o16dEwQGWfrvIrr-20" target="tISk1o16dEwQGWfrvIrr-7" edge="1">
                    <mxGeometry width="50" height="50" relative="1" as="geometry">
                        <mxPoint x="332.5" y="383" as="sourcePoint"/>
                        <mxPoint x="335.5" y="362" as="targetPoint"/>
                    </mxGeometry>
                </mxCell>
                <mxCell id="tISk1o16dEwQGWfrvIrr-25" value="" style="endArrow=none;html=1;rounded=0;" parent="1" source="tISk1o16dEwQGWfrvIrr-21" target="tISk1o16dEwQGWfrvIrr-7" edge="1">
                    <mxGeometry width="50" height="50" relative="1" as="geometry">
                        <mxPoint x="332.5" y="383" as="sourcePoint"/>
                        <mxPoint x="339.5" y="360" as="targetPoint"/>
                    </mxGeometry>
                </mxCell>
                <mxCell id="tISk1o16dEwQGWfrvIrr-32" value="\((0,0,0)\)" style="text;html=1;align=center;verticalAlign=middle;whiteSpace=wrap;rounded=0;fontSize=7;" parent="1" vertex="1">
                    <mxGeometry x="305" y="200" width="30" height="30" as="geometry"/>
                </mxCell>
                <mxCell id="tISk1o16dEwQGWfrvIrr-33" value="\((0,0,1)\)" style="text;html=1;align=center;verticalAlign=middle;whiteSpace=wrap;rounded=0;fontSize=7;" parent="1" vertex="1">
                    <mxGeometry x="170" y="280" width="30" height="30" as="geometry"/>
                </mxCell>
                <mxCell id="tISk1o16dEwQGWfrvIrr-34" value="\((1,0,1)\)" style="text;html=1;align=center;verticalAlign=middle;whiteSpace=wrap;rounded=0;fontSize=7;" parent="1" vertex="1">
                    <mxGeometry x="260" y="280" width="30" height="30" as="geometry"/>
                </mxCell>
                <mxCell id="tISk1o16dEwQGWfrvIrr-35" value="\((0,1,1)\)" style="text;html=1;align=center;verticalAlign=middle;whiteSpace=wrap;rounded=0;fontSize=7;" parent="1" vertex="1">
                    <mxGeometry x="350" y="280" width="30" height="30" as="geometry"/>
                </mxCell>
                <mxCell id="tISk1o16dEwQGWfrvIrr-36" value="\((1,1,1)\)" style="text;html=1;align=center;verticalAlign=middle;whiteSpace=wrap;rounded=0;fontSize=7;" parent="1" vertex="1">
                    <mxGeometry x="440" y="280" width="30" height="30" as="geometry"/>
                </mxCell>
                <mxCell id="tISk1o16dEwQGWfrvIrr-37" value="\((0,2,2)\)" style="text;html=1;align=center;verticalAlign=middle;whiteSpace=wrap;rounded=0;fontSize=7;" parent="1" vertex="1">
                    <mxGeometry x="260" y="340" width="30" height="30" as="geometry"/>
                </mxCell>
                <mxCell id="tISk1o16dEwQGWfrvIrr-38" value="\((1,2,2)\)" style="text;html=1;align=center;verticalAlign=middle;whiteSpace=wrap;rounded=0;fontSize=7;" parent="1" vertex="1">
                    <mxGeometry x="320" y="340" width="30" height="30" as="geometry"/>
                </mxCell>
                <mxCell id="tISk1o16dEwQGWfrvIrr-39" value="\((0,3,2)\)" style="text;html=1;align=center;verticalAlign=middle;whiteSpace=wrap;rounded=0;fontSize=7;" parent="1" vertex="1">
                    <mxGeometry x="380" y="340" width="30" height="30" as="geometry"/>
                </mxCell>
                <mxCell id="tISk1o16dEwQGWfrvIrr-40" value="\((1,3,2)\)" style="text;html=1;align=center;verticalAlign=middle;whiteSpace=wrap;rounded=0;fontSize=7;" parent="1" vertex="1">
                    <mxGeometry x="440" y="340" width="30" height="30" as="geometry"/>
                </mxCell>
                <mxCell id="tISk1o16dEwQGWfrvIrr-41" value="\((2,4,3)\)" style="text;html=1;align=center;verticalAlign=middle;whiteSpace=wrap;rounded=0;fontSize=7;" parent="1" vertex="1">
                    <mxGeometry x="240" y="440" width="30" height="30" as="geometry"/>
                </mxCell>
                <mxCell id="tISk1o16dEwQGWfrvIrr-42" value="\((3,4,3)\)" style="text;html=1;align=center;verticalAlign=middle;whiteSpace=wrap;rounded=0;fontSize=7;" parent="1" vertex="1">
                    <mxGeometry x="290" y="440" width="30" height="30" as="geometry"/>
                </mxCell>
                <mxCell id="tISk1o16dEwQGWfrvIrr-43" value="\((2,5,3)\)" style="text;html=1;align=center;verticalAlign=middle;whiteSpace=wrap;rounded=0;fontSize=7;" parent="1" vertex="1">
                    <mxGeometry x="341" y="440" width="30" height="30" as="geometry"/>
                </mxCell>
                <mxCell id="tISk1o16dEwQGWfrvIrr-44" value="\((3,5,3)\)" style="text;html=1;align=center;verticalAlign=middle;whiteSpace=wrap;rounded=0;fontSize=7;" parent="1" vertex="1">
                    <mxGeometry x="390" y="440" width="30" height="30" as="geometry"/>
                </mxCell>
            </root>
        </mxGraphModel>
    </diagram>
</mxfile>